<?xml version="1.0" standalone="no"?><svg xmlns="http://www.w3.org/2000/svg" viewBox="0 0 1440 320"><path fill="#8000a4" fill-opacity="1" d="M0,288L34.3,266.7C68.6,245,137,203,206,202.7C274.3,203,343,245,411,266.7C480,288,549,288,617,256C685.7,224,754,160,823,160C891.4,160,960,224,1029,218.7C1097.1,213,1166,139,1234,90.7C1302.9,43,1371,21,1406,10.7L1440,0L1440,0L1405.7,0C1371.4,0,1303,0,1234,0C1165.7,0,1097,0,1029,0C960,0,891,0,823,0C754.3,0,686,0,617,0C548.6,0,480,0,411,0C342.9,0,274,0,206,0C137.1,0,69,0,34,0L0,0Z"></path></svg>